<?xml version="1.0" encoding="utf-8"?>
<svg viewBox="0 0 82.340972 62.283337" xmlns="http://www.w3.org/2000/svg">
  <g id="g10" transform="matrix(-1.333317, 0.006934, 0.006934, 1.333317, 510.342934, -525.696053)">
    <path d="m 383.659,412.2497 c 0.054,0.067 0.102,0.137 0.153,0.205 0.058,0.078 0.118,0.153 0.172,0.234 0.055,0.082 0.102,0.167 0.153,0.252 0.043,0.072 0.088,0.142 0.128,0.216 0.046,0.087 0.086,0.176 0.127,0.265 0.036,0.077 0.074,0.152 0.108,0.23 0.036,0.088 0.065,0.177 0.096,0.266 0.031,0.083 0.062,0.165 0.088,0.249 0.027,0.092 0.048,0.185 0.071,0.278 0.021,0.084 0.044,0.167 0.062,0.252 0.021,0.11 0.035,0.222 0.051,0.333 0.01,0.07 0.022,0.138 0.029,0.208 0.037,0.368 0.037,0.74 0,1.109 -0.007,0.07 -0.019,0.138 -0.029,0.207 -0.016,0.112 -0.03,0.223 -0.051,0.333 -0.018,0.086 -0.041,0.169 -0.062,0.253 -0.023,0.092 -0.044,0.185 -0.071,0.277 -0.026,0.085 -0.057,0.166 -0.088,0.249 -0.031,0.089 -0.06,0.179 -0.096,0.266 -0.034,0.079 -0.072,0.154 -0.108,0.231 -0.041,0.088 -0.081,0.178 -0.127,0.264 -0.04,0.074 -0.085,0.145 -0.128,0.216 -0.051,0.085 -0.098,0.17 -0.153,0.253 -0.054,0.08 -0.114,0.156 -0.172,0.233 -0.051,0.069 -0.099,0.139 -0.153,0.205 -0.116,0.143 -0.24,0.28 -0.37,0.41 l -17.768,17.768 c -2.183,2.182 -5.72,2.182 -7.902,0 -2.183,-2.182 -2.183,-5.72 0,-7.903 l 8.229,-8.229 h -37.092 c -3.086,0 -5.587,-2.501 -5.587,-5.588 0,-3.086 2.501,-5.588 5.587,-5.588 h 37.091 l -8.228,-8.229 c -2.183,-2.182 -2.183,-5.72 0,-7.902 1.091,-1.091 2.52,-1.637 3.951,-1.637 1.431,0 2.86,0.546 3.951,1.637 l 17.768,17.768 c 0.13,0.13 0.254,0.267 0.37,0.409" style="fill-opacity: 1; fill-rule: nonzero; stroke: none; stroke-width: 0.1; fill: rgb(255, 255, 255);" id="path96"/>
  </g>
</svg>